<svg xmlns="http://www.w3.org/2000/svg" viewBox="0 -960 960 960">
  <path fill="#666" d="m 980.07031,-560.27344 c -7.89352,0 -14.54839,2.70856 -19.96679,8.12696 -5.41823,5.4184 -8.12696,12.07734 -8.12696,19.9707 0,3.07713 0.4023,5.88389 1.20508,8.42578 0.80278,2.54189 2.00592,4.95206 3.61133,7.22656 l -33.3125,33.3125 c -2.27435,-1.60557 -4.68467,-2.80855 -7.22656,-3.61133 -2.54205,-0.80263 -5.34866,-1.20507 -8.42579,-1.20507 -7.89337,0 -14.5523,2.70855 -19.9707,8.12695 -5.4184,5.4184 -8.12695,12.07334 -8.12695,19.9668 0,7.89343 2.70856,14.55234 8.12695,19.9707 5.41842,5.41838 12.07733,8.12695 19.9707,8.12695 1.20417,0 2.13967,-0.16751 2.8086,-0.50195 0.66894,-0.33445 1.20408,-0.30188 1.60547,0.0996 0.4014,0.40136 0.43465,0.93654 0.0996,1.60547 -0.33447,0.66893 -0.50196,1.60451 -0.50196,2.80859 0,7.89343 2.70856,14.55233 8.12696,19.9707 5.41841,5.4184 12.07539,8.12696 19.96875,8.12696 7.89352,0 14.55035,-2.70856 19.96875,-8.12696 5.4184,-5.41837 8.12695,-12.07727 8.12695,-19.9707 0,-3.0771 -0.4023,-5.88382 -1.20508,-8.42578 -0.80263,-2.54195 -2.00787,-4.95218 -3.61328,-7.22656 l 33.31445,-33.3125 c 2.27435,1.60557 4.68266,2.80854 7.22466,3.61133 2.5419,0.80263 5.3505,1.20507 8.4277,1.20507 7.8935,0 14.5504,-2.70855 19.9687,-8.12695 5.4184,-5.4184 8.127,-12.07343 8.127,-19.9668 0,-7.89352 -2.7086,-14.5523 -8.127,-19.9707 -5.4183,-5.4184 -12.0752,-8.12695 -19.9687,-8.12695 -1.204,0 -2.1397,0.16733 -2.8086,0.50195 -0.6689,0.33431 -1.206,0.30105 -1.6074,-0.0996 -0.4014,-0.40139 -0.4329,-0.93652 -0.098,-1.60547 0.3345,-0.6689 0.502,-1.60442 0.502,-2.80859 0,-7.89335 -2.7086,-14.55229 -8.127,-19.9707 -5.41839,-5.4184 -12.07717,-8.12696 -19.97069,-8.12696 z m 0,16.05469 c 3.47853,0 6.35457,1.13971 8.62891,3.41406 2.27435,2.27436 3.41406,5.15055 3.41406,8.62891 0,4.68255 0.23286,7.96087 0.70117,9.83398 0.46816,1.87296 1.70609,3.8114 3.71289,5.81836 2.00681,2.00665 3.94546,3.24473 5.81836,3.71289 1.8729,0.46832 5.1514,0.70118 9.834,0.70118 3.4784,0 6.3545,1.13972 8.6289,3.41406 2.2745,2.27435 3.4141,5.15036 3.4141,8.6289 0,3.47852 -1.1396,6.35245 -3.4141,8.62696 -2.2744,2.27435 -5.1505,3.41211 -8.6289,3.41211 -1.2042,0 -2.3725,-0.16747 -3.5098,-0.50196 -1.1371,-0.33445 -2.2423,-0.83496 -3.3125,-1.5039 -3.2109,-2.27434 -6.65482,-3.21194 -10.33396,-2.81055 -3.67914,0.40139 -6.9248,2.00682 -9.73438,4.81641 l -33.3125,33.3125 c -2.80943,2.80953 -4.41517,6.05522 -4.8164,9.73437 -0.4014,3.67916 0.5362,7.12307 2.81054,10.33399 0.66894,1.07028 1.16944,2.17531 1.50391,3.3125 0.33447,1.13719 0.50195,2.30568 0.50195,3.50976 0,3.47846 -1.13776,6.35453 -3.41211,8.62891 -2.27435,2.27438 -5.14858,3.41406 -8.62695,3.41406 -3.47852,0 -6.35456,-1.13968 -8.62891,-3.41406 -2.2745,-2.27438 -3.41406,-5.15045 -3.41406,-8.62891 0,-4.68255 -0.23285,-7.96095 -0.70117,-9.83398 -0.46816,-1.87302 -1.7061,-3.81156 -3.71289,-5.81836 -2.0068,-2.00679 -3.94539,-3.24463 -5.81836,-3.71289 -1.87311,-0.46827 -5.15144,-0.70117 -9.83399,-0.70117 -3.47852,0 -6.35455,-1.13969 -8.6289,-3.41407 -2.27435,-2.27437 -3.41406,-5.15043 -3.41406,-8.6289 0,-3.47846 1.13973,-6.35441 3.41406,-8.62891 2.27436,-2.27433 5.15038,-3.41016 8.6289,-3.41016 1.20417,0 2.37268,0.16746 3.50977,0.50196 1.13726,0.33445 2.24217,0.83496 3.3125,1.5039 3.21082,2.27434 6.65485,3.21178 10.33398,2.81055 3.67914,-0.4014 6.923,-2.00698 9.73243,-4.81641 l 33.31445,-33.3125 c 2.80958,-2.80959 4.41501,-6.05521 4.81641,-9.73437 0.40139,-3.67929 -0.5362,-7.12301 -2.81055,-10.33399 -0.80278,-1.07018 -1.33598,-2.10596 -1.60352,-3.10937 -0.26754,-1.00338 -0.40234,-2.2412 -0.40234,-3.71289 0,-3.47838 1.13582,-6.35443 3.41016,-8.62891 2.27435,-2.27435 5.15038,-3.41406 8.6289,-3.41406 z" />
  <path fill="#666" d="m 500.06641,-80.275391 c -7.89352,0 -14.5484,2.708553 -19.9668,8.126954 -5.41823,5.4184 -8.12695,12.077343 -8.12695,19.970703 0,3.07713 0.40229,5.883891 1.20507,8.425781 0.80278,2.54189 2.00592,4.952062 3.61133,7.226562 l -33.3125,33.3125004 c -2.27435,-1.60557 -4.68272,-2.8105013 -7.22461,-3.6132813 -2.54205,-0.80263 -5.3506,-1.203125 -8.42773,-1.203125 -7.89337,0 -14.55035,2.7085532 -19.96875,8.12695315 -5.4184,5.41840005 -8.12891,12.07333675 -8.12891,19.96679675 0,7.89343 2.71052,14.55039 8.12891,19.96875 5.41842,5.41838 12.07538,8.128906 19.96875,8.128906 1.20417,0 2.13966,-0.169466 2.80859,-0.503906 0.66894,-0.33445 1.20408,-0.299927 1.60547,0.101563 0.4014,0.40136 0.43465,0.936538 0.0996,1.605468 -0.33447,0.66893 -0.50195,1.604514 -0.50195,2.808594 0,7.89343 2.70855,14.55038 8.12695,19.96875 5.41841,5.4184 12.07734,8.126953 19.9707,8.126953 7.89352,0 14.5484,-2.708553 19.9668,-8.126953 5.4184,-5.41837 8.12695,-12.07532 8.12695,-19.96875 0,-3.0771 -0.40229,-5.885774 -1.20507,-8.427734 -0.80263,-2.54195 -2.00788,-4.95023 -3.61329,-7.22461 L 516.52344,3.2070313 c 2.27435,1.6055699 4.68261,2.8104912 7.22461,3.6132812 2.5419,0.80263 5.35053,1.2050781 8.42773,1.2050781 7.8935,0 14.55045,-2.7085531 19.96875,-8.1269531 5.4184,-5.4184 8.12891,-12.0734265 8.12891,-19.9667965 0,-7.89352 -2.71051,-14.552303 -8.12891,-19.970703 -5.4183,-5.418401 -12.07525,-8.126954 -19.96875,-8.126954 -1.204,0 -2.13969,0.167334 -2.80859,0.501954 -0.6689,0.334309 -1.20407,0.30105 -1.60547,-0.09961 -0.4014,-0.40139 -0.43481,-0.938472 -0.0996,-1.607422 0.3345,-0.6689 0.50195,-1.60247 0.50195,-2.80664 0,-7.89335 -2.70855,-14.552294 -8.12695,-19.970703 -5.41841,-5.418401 -12.07718,-8.126954 -19.9707,-8.126954 z m 0,16.054688 c 3.47853,0 6.35456,1.139712 8.6289,3.414062 2.27435,2.27436 3.41406,5.150547 3.41406,8.628907 0,4.68255 0.23287,7.960874 0.70118,9.833984 0.46816,1.87296 1.70609,3.811399 3.71289,5.818359 2.00681,2.00665 3.94546,3.242778 5.81836,3.710938 1.8729,0.46832 5.15138,0.703125 9.83398,0.703125 3.4784,0 6.35451,1.137769 8.62891,3.412109 2.2745,2.27435 3.41406,5.15232 3.41406,8.63086 0,3.47852 -1.13956,6.35049 -3.41406,8.625 -2.2744,2.2743496 -5.15051,3.4140621 -8.62891,3.4140621 -1.2042,0 -2.37246,-0.1674631 -3.50976,-0.5019531 -1.1371,-0.33445 -2.2423,-0.8349662 -3.3125,-1.503906 -3.2109,-2.27434 -6.65485,-3.21389 -10.33399,-2.8125 -3.67914,0.40139 -6.92284,2.008769 -9.73242,4.8183591 L 471.97266,25.283203 c -2.80943,2.80953 -4.41518,6.055225 -4.81641,9.734375 -0.4014,3.67916 0.53621,7.121111 2.81055,10.332031 0.66894,1.07028 1.16943,2.177263 1.5039,3.314453 0.33447,1.137191 0.50196,2.305686 0.50196,3.509766 0,3.47846 -1.13776,6.354526 -3.41211,8.628906 -2.27435,2.27438 -5.14859,3.41211 -8.62696,3.41211 -3.47852,0 -6.35455,-1.13773 -8.6289,-3.41211 -2.2745,-2.27438 -3.41407,-5.150446 -3.41407,-8.628906 0,-4.68255 -0.23285,-7.960954 -0.70117,-9.833984 -0.46816,-1.87302 -1.7061,-3.81156 -3.71289,-5.81836 -2.0068,-2.00679 -3.94539,-3.24463 -5.81836,-3.71289 -1.87311,-0.46827 -5.15144,-0.701172 -9.83398,-0.701172 -3.47852,0 -6.35456,-1.139683 -8.62891,-3.414063 -2.27435,-2.27437 -3.41406,-5.150436 -3.41406,-8.628906 0,-3.47846 1.13973,-6.354406 3.41406,-8.628906 2.27436,-2.2743301 5.15039,-3.4101564 8.62891,-3.4101564 1.20417,0 2.37267,0.1674531 3.50976,0.5019532 1.13726,0.33445 2.24413,0.8349662 3.31446,1.5039062 3.21082,2.27434 6.65289,3.211777 10.33203,2.810547 3.67914,-0.4014 6.92494,-2.006976 9.73437,-4.8164064 l 33.3125,-33.3144526 c 2.80958,-2.809591 4.41501,-6.053262 4.81641,-9.732422 0.40139,-3.67929 -0.5362,-7.123005 -2.81055,-10.333985 -0.80278,-1.07018 -1.33597,-2.105965 -1.60351,-3.109375 -0.26754,-1.00338 -0.40235,-2.2412 -0.40235,-3.71289 0,-3.47838 1.13582,-6.354427 3.41016,-8.628907 2.27435,-2.27435 5.15039,-3.414062 8.62891,-3.414062 z" />
  <path fill="#666" d="m 20.072266,-560.27344 c -7.89352,0 -14.5483973,2.70856 -19.96679725,8.12696 -5.41823005,5.4184 -8.12695315,12.07734 -8.12695315,19.9707 0,3.07713 0.4022982,5.88389 1.2050782,8.42578 0.80278,2.54189 2.0059181,4.95206 3.6113281,7.22656 l -33.3124999,33.3125 c -2.27435,-1.60557 -4.684673,-2.80855 -7.226563,-3.61133 -2.54205,-0.80263 -5.348651,-1.20507 -8.425781,-1.20507 -7.89337,0 -14.552303,2.70855 -19.970703,8.12695 -5.4184,5.4184 -8.126953,12.07334 -8.126953,19.9668 0,7.89343 2.708563,14.55234 8.126953,19.9707 5.41842,5.41838 12.077333,8.12695 19.970703,8.12695 1.20417,0 2.139664,-0.16751 2.808594,-0.50195 0.66894,-0.33445 1.204079,-0.30188 1.605469,0.0996 0.4014,0.40136 0.434649,0.93654 0.09961,1.60547 -0.33447,0.66893 -0.501953,1.60451 -0.501953,2.80859 0,7.89343 2.708553,14.55233 8.126953,19.9707 5.41841,5.4184 12.07539,8.12696 19.96875,8.12696 7.89352,0 14.5483969,-2.70856 19.96679688,-8.12696 5.41840002,-5.41837 8.12890622,-12.07727 8.12890622,-19.9707 0,-3.0771 -0.4022981,-5.88382 -1.2050781,-8.42578 -0.80263,-2.54195 -2.0078712,-4.95218 -3.6132812,-7.22656 l 33.3144532,-33.3125 c 2.27435,1.60557 4.682609,2.80854 7.224609,3.61133 2.5419,0.80263 5.350535,1.20507 8.427735,1.20507 7.8935,0 14.55045,-2.70855 19.96875,-8.12695 5.4184,-5.4184 8.126953,-12.07343 8.126953,-19.9668 0,-7.89352 -2.708553,-14.5523 -8.126953,-19.9707 -5.4183,-5.4184 -12.07525,-8.12695 -19.96875,-8.12695 -1.204,0 -2.139694,0.16733 -2.808594,0.50195 -0.6689,0.33431 -1.206022,0.30105 -1.607422,-0.0996 -0.4014,-0.40139 -0.432856,-0.93652 -0.09766,-1.60547 0.3345,-0.6689 0.501953,-1.60442 0.501953,-2.80859 0,-7.89335 -2.708553,-14.55229 -8.126953,-19.9707 -5.41841,-5.4184 -12.077183,-8.12696 -19.970703,-8.12696 z m 0,16.05469 c 3.47853,0 6.354566,1.13971 8.628906,3.41406 2.27435,2.27436 3.414062,5.15055 3.414062,8.62891 0,4.68255 0.232862,7.96087 0.701172,9.83398 0.46816,1.87296 1.706091,3.8114 3.712891,5.81836 2.00681,2.00665 3.945459,3.24473 5.818359,3.71289 1.8729,0.46832 5.151385,0.70118 9.833985,0.70118 3.4784,0 6.354506,1.13972 8.628906,3.41406 2.2745,2.27435 3.414062,5.15036 3.414062,8.6289 0,3.47852 -1.139562,6.35245 -3.414062,8.62696 -2.2744,2.27435 -5.150506,3.41211 -8.628906,3.41211 -1.2042,0 -2.372466,-0.16747 -3.509766,-0.50196 -1.1371,-0.33445 -2.2423,-0.83496 -3.3125,-1.5039 -3.2109,-2.27434 -6.654844,-3.21194 -10.333984,-2.81055 -3.67914,0.40139 -6.924795,2.00682 -9.734375,4.81641 l -33.3125004,33.3125 c -2.8094296,2.80953 -4.4151766,6.05522 -4.8164066,9.73437 -0.4014,3.67916 0.536207,7.12307 2.810547,10.33399 0.6689402,1.07028 1.1694365,2.17531 1.5039065,3.3125 0.33447,1.13719 0.5019531,2.30568 0.5019531,3.50976 0,3.47846 -1.1397125,6.35453 -3.4140626,8.62891 -2.27435,2.27438 -5.14663,3.41406 -8.625,3.41406 -3.47852,0 -6.354556,-1.13968 -8.628906,-3.41406 -2.2745,-2.27438 -3.414063,-5.15045 -3.414063,-8.62891 0,-4.68255 -0.232851,-7.96095 -0.701171,-9.83398 -0.46816,-1.87302 -1.706101,-3.81156 -3.712891,-5.81836 -2.0068,-2.00679 -3.94539,-3.24463 -5.818359,-3.71289 -1.87311,-0.46827 -5.151445,-0.70117 -9.833985,-0.70117 -3.47852,0 -6.354556,-1.13969 -8.628906,-3.41407 -2.27435,-2.27437 -3.414063,-5.15043 -3.414063,-8.6289 0,-3.47846 1.139733,-6.35441 3.414063,-8.62891 2.27436,-2.27433 5.150386,-3.41016 8.628906,-3.41016 1.20417,0 2.372676,0.16746 3.509766,0.50196 1.13726,0.33445 2.24217,0.83496 3.3125,1.5039 3.21082,2.27434 6.654844,3.21178 10.333984,2.81055 3.67914,-0.4014 6.922992,-2.00698 9.732422,-4.81641 l 33.3144531,-33.3125 c 2.8095799,-2.80959 4.4150059,-6.05521 4.8164059,-9.73437 0.40139,-3.67929 -0.536197,-7.12301 -2.810546,-10.33399 -0.8027805,-1.07018 -1.3359761,-2.10596 -1.6035161,-3.10937 -0.26754,-1.00338 -0.4023438,-2.2412 -0.4023438,-3.71289 0,-3.47838 1.1358163,-6.35443 3.4101559,-8.62891 2.27435,-2.27435 5.150387,-3.41406 8.628907,-3.41406 z" />
  <path fill="#666" d="m 500.06641,-1040.2637 c -7.89352,0 -14.5484,2.7085 -19.9668,8.127 -5.41823,5.4184 -8.12695,12.0773 -8.12695,19.9707 0,3.0771 0.40228,5.8839 1.20507,8.4258 0.80277,2.5418 2.00592,4.95203 3.61133,7.22653 l -33.3125,33.3125 c -2.27435,-1.60557 -4.68272,-2.8105 -7.22461,-3.61328 -2.54206,-0.80263 -5.3506,-1.20313 -8.42773,-1.20313 -7.89337,0 -14.55035,2.70855 -19.96875,8.12696 -5.4184,5.4184 -8.12891,12.07333 -8.12891,19.96679 0,7.89343 2.71052,14.55039 8.12891,19.96875 5.41842,5.41838 12.07538,8.12891 19.96875,8.12891 1.20417,0 2.13967,-0.16947 2.80859,-0.50391 0.66895,-0.33445 1.20409,-0.29993 1.60547,0.10156 0.40141,0.40136 0.43465,0.93654 0.0996,1.60547 -0.33447,0.66893 -0.50195,1.60452 -0.50195,2.8086 0,7.89343 2.70855,14.55038 8.12695,19.96875 5.41841,5.4184 12.07734,8.12695 19.9707,8.12695 7.89352,0 14.5484,-2.70855 19.9668,-8.12695 5.4184,-5.41837 8.12695,-12.07532 8.12695,-19.96875 0,-3.0771 -0.40229,-5.88578 -1.20507,-8.42774 -0.80263,-2.54195 -2.00788,-4.95023 -3.61329,-7.22461 l 33.31446,-33.31445 c 2.27435,1.60557 4.68262,2.81049 7.22461,3.61328 2.5419,0.80263 5.35053,1.20508 8.42773,1.20508 7.8935,0 14.55045,-2.70855 19.96875,-8.12695 5.4184,-5.4184 8.12891,-12.07343 8.12891,-19.9668 0,-7.89352 -2.71051,-14.55228 -8.12891,-19.97066 -5.4183,-5.4183 -12.07525,-8.127 -19.96875,-8.127 -1.204,0 -2.13969,0.1674 -2.80859,0.502 -0.6689,0.3343 -1.20407,0.301 -1.60547,-0.1 -0.4014,-0.4014 -0.43481,-0.9384 -0.0996,-1.6074 0.3345,-0.6689 0.50195,-1.6024 0.50195,-2.8066 0,-7.8933 -2.70855,-14.5523 -8.12695,-19.9707 -5.41841,-5.4185 -12.07718,-8.127 -19.9707,-8.127 z m 0,16.0547 c 3.47853,0 6.35456,1.1398 8.6289,3.4141 2.27435,2.2744 3.41406,5.1505 3.41406,8.6289 0,4.6826 0.23286,7.9609 0.70118,9.834 0.46815,1.8729 1.70609,3.81137 3.71289,5.81833 2.0068,2.00665 3.94546,3.24278 5.81836,3.71094 1.8729,0.46832 5.15139,0.70312 9.83398,0.70312 3.4784,0 6.35451,1.13777 8.62891,3.41211 2.2745,2.27435 3.41406,5.15232 3.41406,8.63086 0,3.47852 -1.13956,6.35049 -3.41406,8.625 -2.2744,2.27435 -5.1505,3.41406 -8.62891,3.41406 -1.2042,0 -2.37247,-0.16746 -3.50976,-0.50195 -1.1371,-0.33445 -2.24229,-0.83497 -3.3125,-1.50391 -3.21089,-2.27434 -6.65484,-3.21389 -10.33399,-2.8125 -3.67914,0.40139 -6.92284,2.00877 -9.73242,4.81836 l -33.31445,33.3125 c -2.80943,2.80953 -4.41518,6.05523 -4.81641,9.73438 -0.4014,3.67916 0.53621,7.12111 2.81055,10.33203 0.66894,1.07028 1.16943,2.17726 1.5039,3.31445 0.33447,1.13719 0.50196,2.30569 0.50196,3.50977 0,3.47846 -1.13776,6.35452 -3.41211,8.6289 -2.27435,2.27438 -5.14859,3.41211 -8.62696,3.41211 -3.47852,0 -6.35455,-1.13773 -8.6289,-3.41211 -2.2745,-2.27438 -3.41407,-5.15044 -3.41407,-8.6289 0,-4.68255 -0.23285,-7.96096 -0.70117,-9.83399 -0.46816,-1.87302 -1.7061,-3.81156 -3.71289,-5.81836 -2.0068,-2.00679 -3.94539,-3.24463 -5.81836,-3.71289 -1.87311,-0.46827 -5.15144,-0.70117 -9.83398,-0.70117 -3.47852,0 -6.35456,-1.13968 -8.62891,-3.41406 -2.27435,-2.27437 -3.41406,-5.15044 -3.41406,-8.62891 0,-3.47846 1.13973,-6.3544 3.41406,-8.6289 2.27436,-2.27433 5.15039,-3.41016 8.62891,-3.41016 1.20417,0 2.37267,0.16745 3.50976,0.50195 1.13726,0.33445 2.24413,0.83497 3.31446,1.50391 3.21082,2.27434 6.65289,3.21178 10.33203,2.81055 3.67914,-0.4014 6.92494,-2.00698 9.73437,-4.81641 l 33.3125,-33.31445 c 2.80958,-2.80959 4.41501,-6.05327 4.81641,-9.73243 0.40139,-3.67929 -0.5362,-7.12293 -2.81055,-10.33393 -0.80278,-1.0702 -1.33597,-2.106 -1.60351,-3.1094 -0.26754,-1.0034 -0.40235,-2.2412 -0.40235,-3.7129 0,-3.4784 1.13582,-6.3544 3.41016,-8.6289 2.27435,-2.2743 5.15039,-3.4141 8.62891,-3.4141 z" />
</svg>