<svg xmlns="http://www.w3.org/2000/svg" viewBox="0 -960 960 960">
  <path fill="#666" d="m 492.95312,-103.63281 c -5.09526,0 -9.3911,1.74849 -12.88867,5.246091 -3.49759,3.4976 -5.24609,7.795425 -5.24609,12.890625 0,1.9863 0.25918,3.798653 0.77734,5.439453 0.51817,1.6408 1.29572,3.195863 2.33203,4.664063 l -21.5039,21.503906 c -1.46812,-1.0364 -3.02321,-1.813831 -4.66406,-2.332031 -1.64084,-0.5181 -3.45317,-0.777344 -5.43946,-0.777344 -5.09523,0 -9.39303,1.748494 -12.89062,5.246094 -3.49758,3.4976 -5.2461,7.793412 -5.2461,12.888672 0,5.09524 1.74854,9.393055 5.2461,12.890625 3.49759,3.49759 7.79539,5.246093 12.89062,5.246094 0.77725,0 1.3807,-0.108329 1.8125,-0.324219 0.43181,-0.21589 0.77804,-0.194677 1.03711,0.06445 0.2591,0.25908 0.28031,0.605309 0.0645,1.037109 -0.21589,0.4318 -0.32421,1.03526 -0.32421,1.8125 0,5.09524 1.7485,9.3930452 5.24609,12.8906253 C 457.65384,-1.7484937 461.95162,0 467.04687,0 c 5.09526,0 9.39109,-1.7484937 12.88868,-5.2460937 3.49758,-3.49758 5.24609,-7.7953853 5.24609,-12.8906253 0,-1.98628 -0.25919,-3.798603 -0.77734,-5.439453 -0.51817,-1.64084 -1.29571,-3.195942 -2.33203,-4.664062 l 21.5039,-21.503907 c 1.46812,1.0364 3.02322,1.813832 4.66406,2.332032 1.64084,0.5181 3.45318,0.777343 5.43946,0.777343 5.09525,0 9.39304,-1.748493 12.89062,-5.246093 3.49759,-3.4976 5.2461,-7.793472 5.2461,-12.888672 0,-5.0953 -1.74851,-9.393025 -5.2461,-12.890625 -3.49758,-3.4976 -7.79538,-5.246094 -12.89062,-5.246094 -0.77724,0 -1.3807,0.108219 -1.8125,0.324219 -0.4318,0.2158 -0.77803,0.194147 -1.03711,-0.06445 -0.2591,-0.2591 -0.28032,-0.60531 -0.0645,-1.03711 0.2159,-0.4318 0.32422,-1.0352 0.32422,-1.8125 0,-5.0952 -1.74851,-9.393025 -5.24609,-12.890625 -3.49759,-3.497601 -7.79538,-5.246091 -12.89063,-5.246091 z m 0,10.363279 c 2.24536,0 4.1022,0.735025 5.57032,2.203125 1.46812,1.4681 2.20312,3.325012 2.20312,5.570312 0,3.0226 0.15087,5.138556 0.45313,6.347657 0.30226,1.209 1.10109,2.460359 2.39648,3.755859 1.2954,1.2953 2.54683,2.094284 3.75586,2.396484 1.20904,0.3023 3.32506,0.453125 6.34766,0.453125 2.24536,0 4.10219,0.735025 5.57031,2.203125 1.46812,1.4681 2.20313,3.324913 2.20312,5.570313 0,2.2454 -0.735,4.100159 -2.20312,5.568359 -1.46812,1.4681 -3.32495,2.203125 -5.57031,2.203125 -0.77724,0 -1.53157,-0.108319 -2.26563,-0.324219 -0.73405,-0.2159 -1.4478,-0.538903 -2.13867,-0.970703 -2.07265,-1.4681 -4.29501,-2.073553 -6.66992,-1.814453 -2.37491,0.2591 -4.46964,1.295775 -6.2832,3.109375 l -21.50391,21.503906 c -1.81355,1.81356 -2.8503,3.908294 -3.10938,6.283204 -0.25908,2.3749 0.34634,4.597271 1.81446,6.669921 0.4318,0.69088 0.75481,1.404612 0.9707,2.138672 0.2159,0.73406 0.32422,1.488385 0.32422,2.265625 0,2.24536 -0.73501,4.102193 -2.20313,5.570313 -1.46812,1.46812 -3.323,2.203125 -5.56836,2.203125 -2.24536,0 -4.10216,-0.735005 -5.57031,-2.203125 -1.46811,-1.46812 -2.20312,-3.324953 -2.20312,-5.570313 0,-3.02261 -0.15087,-5.138606 -0.45313,-6.347656 -0.30225,-1.20904 -1.10109,-2.460459 -2.39648,-3.755859 -1.2954,-1.29539 -2.54683,-2.094225 -3.75586,-2.396485 -1.20904,-0.30227 -3.32504,-0.453125 -6.34766,-0.453125 -2.24536,0 -4.10217,-0.735005 -5.57031,-2.203125 -1.46812,-1.46812 -2.20312,-3.324942 -2.20313,-5.570312 0,-2.24536 0.73501,-4.102113 2.20313,-5.570313 1.46813,-1.4681 3.32495,-2.201172 5.57031,-2.201172 0.77725,0 1.53157,0.108319 2.26563,0.324219 0.73406,0.2159 1.4478,0.538903 2.13867,0.970703 2.07265,1.4681 4.29503,2.073453 6.66992,1.814453 2.37491,-0.2591 4.46964,-1.295875 6.2832,-3.109375 l 21.50391,-21.503906 c 1.81356,-1.8136 2.85029,-3.908303 3.10938,-6.283203 0.25908,-2.375 -0.34634,-4.597222 -1.81446,-6.669922 -0.51816,-0.6908 -0.86244,-1.360112 -1.03515,-2.007812 -0.17273,-0.6477 -0.25977,-1.446485 -0.25977,-2.396485 0,-2.2453 0.73306,-4.102112 2.20117,-5.570312 1.46812,-1.4681 3.32496,-2.203125 5.57031,-2.203125 z" />
  <path fill="#666" d="m 921.13672,-531.81641 c -5.09526,0 -9.3911,1.7485 -12.88867,5.2461 -3.49759,3.4976 -5.2461,7.79542 -5.2461,12.89062 0,1.9863 0.25919,3.79866 0.77735,5.43946 0.51817,1.6408 1.29572,3.19586 2.33203,4.66406 l -21.50391,21.5039 c -1.46812,-1.0364 -3.02321,-1.81383 -4.66406,-2.33203 -1.64084,-0.5181 -3.45316,-0.77734 -5.43945,-0.77734 -5.09523,0 -9.39304,1.74849 -12.89063,5.24609 -3.49758,3.4976 -5.24609,7.79342 -5.24609,12.88868 0,5.09524 1.74853,9.39305 5.24609,12.89062 3.49759,3.49759 7.7954,5.24609 12.89063,5.24609 0.77725,0 1.3807,-0.10833 1.8125,-0.32421 0.43181,-0.21589 0.77804,-0.19468 1.03711,0.0645 0.2591,0.25908 0.2803,0.60531 0.0644,1.03711 -0.21589,0.4318 -0.32422,1.03526 -0.32422,1.8125 0,5.09524 1.7485,9.39304 5.24609,12.89062 3.49759,3.4976 7.79538,5.2461 12.89063,5.2461 5.09526,0 9.39108,-1.7485 12.88867,-5.2461 3.49758,-3.49758 5.24609,-7.79538 5.24609,-12.89062 0,-1.98628 -0.25919,-3.79861 -0.77734,-5.43946 -0.51817,-1.64084 -1.29571,-3.19594 -2.33203,-4.66406 l 21.50391,-21.5039 c 1.46812,1.0364 3.02322,1.81383 4.66406,2.33203 1.64084,0.5181 3.45317,0.77734 5.43945,0.77734 5.09525,0 9.39305,-1.74849 12.89063,-5.24609 3.49759,-3.4976 5.24609,-7.79347 5.24609,-12.88867 0,-5.0953 -1.7485,-9.39303 -5.24609,-12.89063 -3.49758,-3.4976 -7.79539,-5.24609 -12.89063,-5.24609 -0.77724,0 -1.3807,0.10822 -1.8125,0.32422 -0.4318,0.2158 -0.77803,0.19414 -1.03711,-0.0645 -0.2591,-0.2591 -0.28031,-0.60531 -0.0645,-1.03711 0.2159,-0.4318 0.32422,-1.0352 0.32422,-1.8125 0,-5.0952 -1.74852,-9.39302 -5.2461,-12.89062 -3.49759,-3.4976 -7.79537,-5.2461 -12.89062,-5.2461 z m 0,10.36329 c 2.24536,0 4.10219,0.73502 5.57031,2.20312 1.46812,1.4681 2.20313,3.32501 2.20313,5.57031 0,3.0226 0.15086,5.13856 0.45312,6.34766 0.30226,1.209 1.1011,2.46036 2.39649,3.75586 1.2954,1.2953 2.54682,2.09428 3.75585,2.39648 1.20904,0.3023 3.32506,0.45313 6.34766,0.45313 2.24536,0 4.10219,0.73502 5.57031,2.20312 1.46812,1.4681 2.20313,3.32491 2.20313,5.57032 0,2.2454 -0.73501,4.10015 -2.20313,5.56835 -1.46812,1.4681 -3.32495,2.20313 -5.57031,2.20313 -0.77724,0 -1.53156,-0.10832 -2.26562,-0.32422 -0.73405,-0.2159 -1.44781,-0.5389 -2.13868,-0.9707 -2.07265,-1.4681 -4.29501,-2.07356 -6.66992,-1.81446 -2.37491,0.2591 -4.46964,1.29578 -6.2832,3.10938 l -21.50391,21.50391 c -1.81355,1.81356 -2.85029,3.90829 -3.10937,6.2832 -0.25908,2.3749 0.34633,4.59727 1.81445,6.66992 0.4318,0.69088 0.75481,1.40461 0.9707,2.13867 0.2159,0.73406 0.32422,1.48839 0.32422,2.26563 0,2.24536 -0.735,4.10219 -2.20312,5.57031 -1.46812,1.46812 -3.323,2.20313 -5.56836,2.20313 -2.24536,0 -4.10216,-0.73501 -5.57031,-2.20313 -1.46811,-1.46812 -2.20313,-3.32495 -2.20313,-5.57031 0,-3.02261 -0.15086,-5.13861 -0.45312,-6.34766 -0.30225,-1.20904 -1.1011,-2.46046 -2.39649,-3.75586 -1.2954,-1.29539 -2.54683,-2.09422 -3.75586,-2.39648 -1.20904,-0.30227 -3.32503,-0.45313 -6.34765,-0.45313 -2.24536,0 -4.10218,-0.735 -5.57032,-2.20312 -1.46812,-1.46812 -2.20312,-3.32494 -2.20312,-5.57031 0,-2.24536 0.735,-4.10212 2.20312,-5.57032 1.46813,-1.4681 3.32496,-2.20117 5.57032,-2.20117 0.77725,0 1.53156,0.10832 2.26562,0.32422 0.73406,0.2159 1.4478,0.5389 2.13867,0.9707 2.07265,1.4681 4.29503,2.07346 6.66992,1.81446 2.37491,-0.2591 4.46965,-1.29588 6.28321,-3.10938 l 21.5039,-21.50391 c 1.81356,-1.8136 2.85029,-3.9083 3.10938,-6.2832 0.25908,-2.375 -0.34633,-4.59722 -1.81445,-6.66992 -0.51816,-0.6908 -0.86245,-1.36011 -1.03516,-2.00781 -0.17273,-0.6477 -0.25977,-1.44649 -0.25977,-2.39649 0,-2.2453 0.73307,-4.10211 2.20118,-5.57031 1.46812,-1.4681 3.32495,-2.20312 5.57031,-2.20312 z" />
</svg>