<svg xmlns="http://www.w3.org/2000/svg" viewBox="0 0 375 375" role="img" arialabelledby="tyler-and-joey-logo-title tyler-and-joey-logo-description">
  <title id="tyler-and-joey-logo-title">Tyler and Joey Logo</title>
  <desc id="tyler-and-joey-logo-description">Decorated light-blue letters T and J are on a transparent background</desc>
  <path id="fg" fill="#dae7fa" d="M 168.43 77.8 C 160.83 77.8 154.64 79 149.89 81.4 C 145.13 83.76 141.4 86.7 138.78 90.25 C 136.13 93.78 134.33 97.38 133.37 101.06 C 132.4 104.73 131.95 107.92 131.95 110.64 C 131.95 115.8 133.24 120.3 135.8 124.1 C 138.4 127.9 141.6 131.36 145.4 134.5 L 149.07 131.03 C 147.3 129.66 146.25 127.73 145.9 125.2 C 145.57 122.7 146.08 120.35 147.43 118.18 C 148.8 116 151.1 114.92 154.37 114.92 C 156.68 114.92 159.4 115.6 162.53 116.96 C 165.65 118.32 169.2 119.88 173.14 121.64 L 173.14 217.26 L 173.2 217.26 L 173.2 219.54 C 173.2 224.84 174.42 229.13 176.87 232.39 C 179.3 235.66 182.4 238.3 186.13 240.35 C 189.87 242.38 193.6 244.14 197.35 245.64 C 201.1 247.14 204.32 248.73 207.04 250.43 C 209.76 252.13 211.32 254.27 211.73 256.85 C 212.13 259.57 211.82 262.12 210.8 264.5 C 209.8 266.88 206.84 268.07 201.95 268.07 C 198.4 268.07 194.78 266.8 191.04 264.3 C 187.3 261.78 183.15 258.93 178.6 255.74 C 174.05 252.54 168.88 249.7 163.1 247.18 C 157.33 244.66 150.64 243.4 143.02 243.4 C 135.4 243.4 129.22 245 124.46 248.08 C 119.7 251.2 116.1 255.29 113.66 260.32 C 111.2 265.35 109.72 270.82 109.18 276.74 C 108.64 282.64 108.7 288.4 109.38 293.96 L 114.07 293.96 C 114.07 289.47 114.85 285.9 116.4 283.25 C 117.98 280.6 121.27 279.3 126.3 279.3 C 128.75 279.3 131.47 280.11 134.46 281.74 C 137.45 283.36 140.7 285.23 144.24 287.33 C 147.77 289.44 151.64 291.3 155.85 292.94 C 160.07 294.57 164.7 295.38 169.73 295.38 C 174.76 295.38 180.06 294.7 185.63 293.35 C 191.2 291.98 196.43 289.64 201.32 286.32 C 206.2 282.98 210.2 278.43 213.26 272.66 C 216.32 266.88 217.85 259.64 217.85 250.94 L 217.85 155.72 L 217.78 155.72 L 217.78 155.48 C 217.78 151 216.79 147.82 214.82 145.92 C 212.86 144.01 210.3 142.68 207.17 141.93 C 204.04 141.18 200.75 140.4 197.28 139.6 C 193.82 138.77 190.6 137.27 187.6 135.1 C 184.6 132.93 182.23 129.46 180.46 124.7 C 184.68 126.34 189.23 127.73 194.12 128.9 C 199.02 130.04 204.32 130.62 210.03 130.62 C 215.06 130.62 220.4 129.7 226.03 127.87 C 231.67 126.03 236.97 123.07 241.93 119 C 246.9 114.9 250.95 109.6 254.07 103.1 C 257.2 96.57 258.76 88.62 258.76 79.25 L 253.67 79.25 C 253.67 82.5 252.92 85.67 251.42 88.73 C 249.92 91.8 247.64 94.33 244.57 96.37 C 241.52 98.4 237.62 99.42 232.87 99.42 C 229.33 99.42 225.42 98.34 221.14 96.17 C 216.86 94 212.06 91.48 206.76 88.62 C 201.47 85.77 195.66 83.25 189.34 81.07 C 183.02 78.9 176.05 77.8 168.43 77.8 z " />
</svg>
